HIERARCHY
ROOT Hips
{
 OFFSET 0.000000 0.000000 0.000000
 CHANNELS 6 Xposition Yposition Zposition Yrotation Xrotation Zrotation
 JOINT Chest
 {
  OFFSET 0.000000 9.585900 0.002600
  CHANNELS 3 Yrotation Xrotation Zrotation
  JOINT Chest2
  {
   OFFSET 0.000000 9.601200 -0.005300
   CHANNELS 3 Yrotation Xrotation Zrotation
   JOINT Chest3
   {
    OFFSET 0.000000 9.561800 0.000000
    CHANNELS 3 Yrotation Xrotation Zrotation
    JOINT Chest4
    {
     OFFSET 0.000000 9.552100 0.000000
     CHANNELS 3 Yrotation Xrotation Zrotation
     JOINT Neck
     {
      OFFSET 0.000000 14.453000 0.000000
      CHANNELS 3 Yrotation Xrotation Zrotation
      JOINT Head
      {
       OFFSET 0.000000 8.936500 -0.011300
       CHANNELS 3 Yrotation Xrotation Zrotation
       End Site
       {
        OFFSET 0.000000 17.073600 -0.006000
       }
      }
     }
     JOINT RightCollar
     {
      OFFSET -2.921100 9.558500 0.000000
      CHANNELS 3 Yrotation Xrotation Zrotation
      JOINT RightShoulder
      {
       OFFSET -13.519700 0.000000 0.000000
       CHANNELS 3 Yrotation Xrotation Zrotation
       JOINT RightElbow
       {
        OFFSET 0.000000 -29.696600 0.000000
        CHANNELS 3 Yrotation Xrotation Zrotation
        JOINT RightWrist
        {
         OFFSET 0.000000 -24.004700 0.000000
         CHANNELS 3 Yrotation Xrotation Zrotation
         End Site
         {
          OFFSET 0.000000 -17.728500 0.000000
         }
        }
       }
      }
     }
     JOINT LeftCollar
     {
      OFFSET 2.921100 9.558500 0.000000
      CHANNELS 3 Yrotation Xrotation Zrotation
      JOINT LeftShoulder
      {
       OFFSET 13.519700 0.000000 0.000000
       CHANNELS 3 Yrotation Xrotation Zrotation
       JOINT LeftElbow
       {
        OFFSET 0.000000 -29.696600 0.000000
        CHANNELS 3 Yrotation Xrotation Zrotation
        JOINT LeftWrist
        {
         OFFSET 0.000000 -24.004700 0.000000
         CHANNELS 3 Yrotation Xrotation Zrotation
         End Site
         {
          OFFSET 0.000000 -17.728500 0.000000
         }
        }
       }
      }
     }
    }
   }
  }
 }
 JOINT RightHip
 {
  OFFSET -7.771700 -0.012900 -0.001300
  CHANNELS 3 Yrotation Xrotation Zrotation
  JOINT RightKnee
  {
   OFFSET 0.000000 -40.869800 0.001200
   CHANNELS 3 Yrotation Xrotation Zrotation
   JOINT RightAnkle
   {
    OFFSET 0.000000 -39.717900 0.002100
    CHANNELS 3 Yrotation Xrotation Zrotation
    JOINT RightToe
    {
     OFFSET 0.000000 -4.965400 11.033500
     CHANNELS 3 Yrotation Xrotation Zrotation
     End Site
     {
      OFFSET 0.000000 -1.423100 5.872300
     }
    }
   }
  }
 }
 JOINT LeftHip
 {
  OFFSET 7.771700 -0.012900 -0.001300
  CHANNELS 3 Yrotation Xrotation Zrotation
  JOINT LeftKnee
  {
   OFFSET 0.000000 -40.869800 0.001200
   CHANNELS 3 Yrotation Xrotation Zrotation
   JOINT LeftAnkle
   {
    OFFSET 0.000000 -39.717900 0.002100
    CHANNELS 3 Yrotation Xrotation Zrotation
    JOINT LeftToe
    {
     OFFSET 0.000000 -4.965400 11.033500
     CHANNELS 3 Yrotation Xrotation Zrotation
     End Site
     {
      OFFSET 0.000000 -1.423100 5.872300
     }
    }
   }
  }
 }
}
MOTION
Frames: 16
Frame Time: 0.008333
0.000000 85.388000 0.000000 0.000000 -5.767877 0.000000 0.000000 11.653817 0.000000 0.000000 -5.885947 0.000000 0.000000 -0.000000 0.000000 0.000000 -0.000000 0.000000 0.000000 12.528835 0.000000 0.000000 0.711642 0.000000 0.000000 -0.000000 0.000000 0.000000 0.000000 -90.000000 0.000000 -2.309062 0.000000 0.000000 2.309062 0.000000 0.000000 -0.000000 0.000000 0.000000 -0.000000 90.000000 0.000000 -2.309062 0.000000 0.000000 2.309062 0.000000 0.000000 8.520406 0.000000 0.000000 1.905762 0.000000 -0.000000 -4.658285 0.000000 0.000000 -0.000000 0.000000 0.000000 8.520406 0.000000 0.000000 1.905762 0.000000 -0.000000 -4.658285 0.000000 0.000000 -0.000000 0.000000
-161.989248 55.707583 107.480551 -173.337745 -26.454393 -11.337460 -0.860650 14.067863 8.323978 -0.964723 8.164775 3.179295 -1.145689 10.222840 3.963989 -0.984211 8.194994 3.183085 1.593644 24.973824 -6.849994 3.377478 1.700623 -7.969266 1.938651 0.034968 -4.483535 -15.357430 -10.823539 5.207334 56.125110 -85.897134 -37.360695 13.063315 7.086173 -19.677429 -10.648603 1.476798 -3.521611 2.531040 -3.956952 -3.268104 -173.073062 -88.216364 172.834228 8.446361 -3.547653 3.480314 -23.281633 -36.463319 11.361055 44.469295 85.248395 40.572798 0.031647 -20.520386 -1.912077 -1.190575 2.685291 -0.553042 -16.364855 -50.869667 13.205873 -179.398275 80.461130 175.463583 -2.182070 -17.453041 3.819972 -0.088469 -0.526083 -0.027638
-161.984371 55.709421 107.479564 -173.321391 -26.453720 -11.351898 -0.868183 14.060452 8.330619 -0.945347 8.126920 3.179198 -1.142064 10.202271 3.967442 -0.968803 8.155894 3.183318 1.620903 25.014871 -6.864863 3.392181 1.754318 -7.974951 1.889867 0.047336 -4.442275 -15.310425 -10.832768 5.241543 55.435914 -85.835393 -36.692004 13.021203 7.052816 -19.656189 -10.696850 1.495980 -3.514014 2.517600 -3.955984 -3.257422 -173.906796 -88.299955 173.676674 8.520649 -3.498699 3.450590 -23.309256 -36.453012 11.369196 44.484073 85.243338 40.592389 0.025953 -20.517031 -1.921568 -1.186907 2.684321 -0.550262 -16.361714 -50.866249 13.215529 -179.348883 80.462395 175.518953 -2.192333 -17.456495 3.828205 -0.089177 -0.523354 -0.028131
-161.979957 55.711562 107.478210 -173.303659 -26.453918 -11.361553 -0.858445 14.029552 8.332465 -0.966255 8.118217 3.185121 -1.146225 10.184640 3.970515 -0.972113 8.141740 3.185813 1.668164 25.025306 -6.891218 3.420065 1.798261 -7.992101 1.883889 0.026207 -4.422862 -15.271770 -10.823386 5.260246 54.751373 -85.809874 -36.010998 13.027861 7.047405 -19.639245 -10.705583 1.521180 -3.525307 2.513876 -3.953979 -3.253157 -177.887364 -88.341588 177.617669 8.481421 -3.463946 3.467030 -23.332374 -36.444918 11.366547 44.543925 85.238102 40.661424 0.022577 -20.513971 -1.936887 -1.180532 2.682214 -0.545323 -16.354406 -50.861385 13.215738 -179.311518 80.465475 175.561754 -2.202040 -17.461146 3.836179 -0.090807 -0.519306 -0.027602
-161.974342 55.714290 107.476496 -173.282958 -26.454668 -11.378706 -0.874769 13.987347 8.336487 -0.974828 8.146722 3.188913 -1.160680 10.148449 3.972380 -0.980174 8.127998 3.187590 1.710965 25.044388 -6.912475 3.472715 1.826504 -8.027206 1.899648 0.050105 -4.421650 -15.245937 -10.856134 5.301986 54.271850 -85.754349 -35.540912 13.030843 7.044392 -19.626077 -10.692419 1.544982 -3.543205 2.519893 -4.009762 -3.238990 179.031214 -88.436110 -179.325838 8.475523 -3.439130 3.480485 -23.376034 -36.426842 11.368486 44.633603 85.221690 40.757903 0.033035 -20.518796 -1.964372 -1.178039 2.687638 -0.542931 -16.367658 -50.852732 13.227725 -179.272263 80.467664 175.606380 -2.204774 -17.467168 3.836967 -0.092695 -0.514746 -0.026490
-161.969178 55.716488 107.476012 -173.268695 -26.447887 -11.389651 -0.886700 13.955986 8.334636 -0.986805 8.157175 3.195326 -1.163169 10.099331 3.964996 -0.986640 8.110713 3.187380 1.756511 25.070969 -6.921035 3.486265 1.873433 -8.024460 1.897230 0.014399 -4.398053 -15.206708 -10.826964 5.313866 53.793951 -85.702293 -35.053167 13.051879 7.072955 -19.638367 -10.685400 1.543742 -3.540662 2.527887 -4.019981 -3.231320 177.201655 -88.527828 -177.502334 8.498062 -3.428002 3.498025 -23.405885 -36.421369 11.379497 44.627202 85.215526 40.747610 0.043669 -20.522011 -1.966732 -1.186601 2.692077 -0.549262 -16.376187 -50.852897 13.238989 -179.225562 80.471957 175.656682 -2.206940 -17.473335 3.840580 -0.093414 -0.509914 -0.029224
-161.965855 55.719069 107.474457 -173.256294 -26.449864 -11.391175 -0.892213 13.934460 8.323757 -0.982620 8.090547 3.182738 -1.160027 10.102039 3.963267 -0.985911 8.087571 3.183823 1.767723 25.147858 -6.892042 3.566168 1.880735 -8.061185 1.853910 -0.000057 -4.349051 -15.164733 -10.804121 5.325844 53.296163 -85.655035 -34.530719 13.054857 7.080045 -19.622219 -10.713805 1.572180 -3.515919 2.518057 -4.007293 -3.224011 175.497960 -88.594442 -175.785849 8.503287 -3.432562 3.538647 -23.418010 -36.415511 11.373421 44.634383 85.215740 40.760390 0.037856 -20.522170 -1.972966 -1.180291 2.691871 -0.545521 -16.343046 -50.845914 13.235306 -179.127989 80.477997 175.750597 -2.227288 -17.480361 3.870424 -0.091739 -0.508169 -0.033161
-161.961818 55.721127 107.474202 -173.249323 -26.445828 -11.396769 -0.876564 13.882324 8.311973 -0.970880 8.048424 3.172048 -1.154706 10.083155 3.959641 -0.978166 8.060500 3.177271 1.809182 25.180170 -6.863598 3.600471 1.953588 -8.029153 1.779008 0.026202 -4.277212 -15.129169 -10.811670 5.342549 52.843996 -85.593672 -34.054082 13.063431 7.051442 -19.583453 -10.773973 1.616838 -3.472606 2.514228 -3.951583 -3.222427 174.444028 -88.626624 -174.712294 8.496647 -3.439976 3.556111 -23.433195 -36.414384 11.378889 44.630442 85.213946 40.761284 0.037033 -20.518944 -1.982610 -1.174306 2.689539 -0.542774 -16.346949 -50.844592 13.246904 -179.105831 80.481215 175.770602 -2.231507 -17.482140 3.874734 -0.095225 -0.507935 -0.032587
-161.957547 55.723189 107.473856 -173.236144 -26.444457 -11.410611 -0.861213 13.829706 8.304428 -0.965320 8.022335 3.164394 -1.143918 10.050293 3.950316 -0.969210 8.034258 3.169675 1.845693 25.208501 -6.833538 3.598025 2.038813 -7.970919 1.696296 0.052641 -4.198118 -15.092056 -10.826242 5.351459 52.390025 -85.534372 -33.566868 13.069443 7.077042 -19.591560 -10.837226 1.585653 -3.427260 2.482527 -3.868353 -3.207011 174.065117 -88.706386 -174.282394 8.507501 -3.447547 3.582163 -23.481928 -36.399876 11.393987 44.674517 85.203150 40.795604 0.046163 -20.523710 -1.989820 -1.178003 2.696982 -0.550695 -16.361354 -50.838556 13.276929 -179.066062 80.483105 175.797449 -2.245069 -17.483208 3.891652 -0.101648 -0.508170 -0.032654
-161.953811 55.725113 107.473239 -173.223305 -26.449186 -11.425681 -0.863001 13.822902 8.309984 -0.957647 7.998088 3.155363 -1.132701 9.987627 3.928362 -0.964080 8.011328 3.162563 1.861988 25.246020 -6.801228 3.596755 2.112973 -7.930338 1.630860 0.070791 -4.130910 -15.052095 -10.843485 5.353300 51.924115 -85.484346 -33.063381 13.081227 7.076972 -19.584335 -10.878913 1.586489 -3.401164 2.455560 -3.831337 -3.189444 177.761111 -88.778751 -177.923346 8.549355 -3.511287 3.682606 -23.512437 -36.384820 11.399067 44.722975 85.194972 40.847202 0.056046 -20.519542 -2.003542 -1.181626 2.695548 -0.551060 -16.368301 -50.826559 13.308442 -178.916951 80.485468 175.931448 -2.256348 -17.484771 3.915710 -0.093387 -0.510315 -0.036361
-161.951404 55.726078 107.473499 -173.216142 -26.453728 -11.433701 -0.855439 13.778992 8.296064 -0.963296 8.011102 3.162566 -1.135230 9.974992 3.925705 -0.961625 7.945088 3.142657 1.873201 25.273803 -6.776586 3.624535 2.160793 -7.913688 1.584028 0.085705 -4.079865 -15.009611 -10.861096 5.350265 51.440240 -85.449211 -32.543021 13.089384 7.025959 -19.538223 -10.895575 1.602165 -3.391135 2.447948 -3.807338 -3.179657 -178.574148 -88.828060 178.440964 8.575131 -3.551007 3.744082 -23.536297 -36.376370 11.397621 44.770051 85.190875 40.903409 0.060624 -20.513478 -2.023696 -1.174815 2.692623 -0.545997 -16.375128 -50.816934 13.331974 -178.799541 80.487815 176.033190 -2.258898 -17.484930 3.929751 -0.097899 -0.511151 -0.035562
-161.949373 55.726625 107.473864 -173.211743 -26.462661 -11.441494 -0.858742 13.743438 8.283638 -0.963242 7.925647 3.138260 -1.138310 9.992871 3.932550 -0.964421 7.948206 3.144801 1.876638 25.295627 -6.756722 3.642340 2.195298 -7.901294 1.544515 0.099698 -4.040184 -14.964537 -10.876991 5.341277 50.907559 -85.426902 -31.972859 13.094604 6.995256 -19.503176 -10.900901 1.614067 -3.393931 2.455416 -3.786815 -3.173083 -175.619195 -88.870028 175.495776 8.605413 -3.544213 3.763569 -23.556800 -36.363546 11.402355 44.784154 85.189323 40.915606 0.064894 -20.509934 -2.026724 -1.178261 2.692858 -0.549110 -16.383816 -50.803700 13.356692 -178.692659 80.488790 176.125580 -2.267080 -17.483355 3.937656 -0.096889 -0.513304 -0.031262
-161.947465 55.726893 107.474253 -173.201767 -26.474693 -11.453049 -0.871759 13.667005 8.264219 -0.967115 7.950471 3.145520 -1.142507 9.945348 3.920268 -0.967142 7.950457 3.145503 1.881007 25.362019 -6.733360 3.634667 2.178968 -7.892727 1.508047 0.110816 -4.006519 -14.918640 -10.886357 5.326049 50.200746 -85.380070 -31.249695 13.094537 6.938864 -19.463063 -10.903785 1.677714 -3.398125 2.473216 -3.818051 -3.177374 -173.207923 -88.914921 173.079833 8.603172 -3.589273 3.775825 -23.581580 -36.346767 11.405521 44.804065 85.188253 40.932780 0.075893 -20.504640 -2.030549 -1.177250 2.691787 -0.552600 -16.399933 -50.787144 13.377963 -178.617966 80.488918 176.189073 -2.273377 -17.482558 3.944548 -0.094697 -0.513974 -0.030084
-161.946230 55.726609 107.475280 -173.189991 -26.486028 -11.461393 -0.884851 13.633497 8.254353 -0.968887 7.928810 3.140695 -1.144446 9.968113 3.924366 -0.967362 7.878901 3.131284 1.867156 25.364539 -6.713222 3.632708 2.221418 -7.872714 1.473570 0.123431 -3.974311 -14.878423 -10.889350 5.309995 49.493061 -85.333839 -30.523953 13.091275 6.880713 -19.427394 -10.910817 1.747386 -3.403572 2.498219 -3.848166 -3.186330 -171.385313 -88.979026 171.242684 8.594011 -3.658114 3.761362 -23.603253 -36.330943 11.404468 44.833925 85.185099 40.957422 0.087968 -20.507679 -2.034707 -1.191666 2.701968 -0.550594 -16.410986 -50.772635 13.395004 -178.518172 80.490747 176.274468 -2.279084 -17.480688 3.956351 -0.093638 -0.514148 -0.029026
-161.944992 55.726228 107.476669 -173.182247 -26.499146 -11.466717 -0.891486 13.623855 8.249663 -0.968284 7.879728 3.130894 -1.149276 9.994037 3.927550 -0.963161 7.800157 3.115666 1.848207 25.376220 -6.689014 3.623156 2.270403 -7.843452 1.439475 0.140432 -3.940838 -14.843087 -10.837761 5.286686 49.322885 -85.355520 -30.318522 13.091618 6.862069 -19.401833 -10.920645 1.697271 -3.441050 2.524296 -3.751390 -3.160646 -169.089322 -89.002765 168.932438 8.609976 -3.668846 3.745638 -23.615970 -36.316600 11.402588 44.840590 85.185771 40.960827 0.094047 -20.508627 -2.036117 -1.197798 2.706544 -0.551329 -16.411447 -50.757489 13.405809 -178.431551 80.492691 176.349518 -2.285042 -17.479079 3.968617 -0.093729 -0.514198 -0.029627
-161.944362 55.726174 107.477784 -173.167296 -26.516301 -11.469437 -0.903943 13.618258 8.239890 -0.968477 7.867090 3.128154 -1.149024 9.845406 3.895157 -0.970928 7.853533 3.121937 1.834650 25.420647 -6.659090 3.602309 2.306397 -7.810322 1.406948 0.159160 -3.903458 -14.817461 -10.861834 5.284536 48.833586 -85.364927 -29.756866 13.098671 6.917868 -19.396256 -10.934302 1.702423 -3.469843 2.543857 -3.703890 -3.143607 -167.716788 -88.958032 167.541821 8.625507 -3.617154 3.754381 -23.623998 -36.301205 11.386734 44.860303 85.186926 40.986456 0.090978 -20.507426 -2.042416 -1.189186 2.706165 -0.547886 -16.404675 -50.738494 13.408899 -178.390790 80.495738 176.374350 -2.305116 -17.475281 3.990809 -0.094823 -0.515190 -0.033626
